<svg xmlns="http://www.w3.org/2000/svg" width="400" height="340"><path fill="#303d66" d="M316.24706542861526,288.28084288962145C296.29234083113766,298.010220481123,257.4888829292074,268.045955813232,236.65954719698703,278.3762655490093C215.83021146476668,288.7065752847866,210.77087073038712,342.6158802574931,191.2710510352931,350.2627013042852C171.7712313401991,357.9095223510773,144.6069070725407,337.72620131244116,119.66062902642291,324.257191829762C94.71435098030511,310.78818234708285,50.32025046775205,293.8082880518215,41.59338275858627,269.44864440821016C32.8665150494205,245.0890007645988,50.2900224429216,199.10280908989898,67.29942277142828,178.09932996809397C84.30882309993497,157.09585084628895,123.81165107182375,163.88446024934623,143.6497847296264,143.42776967738013C163.48791838742903,122.97107910541402,163.14996958944414,69.13599644585983,186.32822471824417,55.3591865362973C209.5064798470442,41.58237662673477,265.32152068132166,41.97217075737956,282.71931550242664,60.766910220004945C300.1171103235316,79.56164968263033,278.436897098303,141.58877501538382,290.71499364487397,168.12762331204965C302.99309019144494,194.66647160871548,352.1325494845624,199.97446340373804,356.3878947818526,220C360.6432400791428,240.02553659626196,336.20179002609285,278.5514652981199,316.24706542861526,288.28084288962145" stroke="none" stroke-width="3"/></svg>